<?xml version="1.0" encoding="iso-8859-1"?>
<!-- Generator: Adobe Illustrator 18.0.0, SVG Export Plug-In . SVG Version: 6.00 Build 0)  -->
<!DOCTYPE svg PUBLIC "-//W3C//DTD SVG 1.1//EN" "http://www.w3.org/Graphics/SVG/1.1/DTD/svg11.dtd">
<svg version="1.1" id="Capa_1" xmlns="http://www.w3.org/2000/svg" xmlns:xlink="http://www.w3.org/1999/xlink" x="0px" y="0px"
	 viewBox="0 0 416.395 416.395" style="enable-background:new 0 0 416.395 416.395;" xml:space="preserve">
<g>
	<g>
		<path style="fill:none;" d="M226.051,64.964l-7.465,58.226h36.691l11.788-25.498c1.964-4.246,6.217-6.963,10.892-6.963
			c0.02,0,0.039,0,0.06,0l72.253,0.357c-19.098-23.127-43.727-41.52-71.837-53.158L226.051,64.964z"/>
		<path style="fill:none;" d="M86.586,115.043l-8.695-36.908c-31.938,31.996-52.192,75.647-53.777,123.941l41.25-5.68
			L86.586,115.043z"/>
		<path style="fill:none;" d="M39.741,282.664c8.819,19.871,21.05,37.902,35.951,53.346l-9.245-41.383L39.741,282.664z"/>
		<path style="fill:none;" d="M339.062,181.19H239.92l-50.971,50.971v49.029h58c6.627,0,12,5.373,12,12v92.091
			c66.008-18.946,116.937-73.888,130.102-142.117c-0.201-0.209-0.403-0.416-0.592-0.642
			C365.564,215.047,346.691,191.002,339.062,181.19z"/>
		<path style="fill:#73D0F4;" d="M320.371,32.871c0.261,0.167,0.516,0.342,0.775,0.51C326.435,34.683,325.07,34.216,320.371,32.871z
			"/>
		<path style="fill:#73D0F4;" d="M285.612,114.766l-11.77,25.46c-1.964,4.245-6.215,6.964-10.893,6.964h-58
			c-3.448,0-6.731-1.484-9.009-4.072c-2.278-2.59-3.332-6.033-2.894-9.453l10-78c0.501-3.913,2.894-7.329,6.398-9.139l36.217-18.691
			C233.561,25.323,221.03,24,208.196,24c-41.122,0-79.139,13.549-109.825,36.412l12.259,52.025c0.448,1.904,0.425,3.889-0.069,5.781
			l-24,92c-1.226,4.699-5.163,8.196-9.975,8.858l-47.546,6.547l1.642,26.684l51.069,22.876c3.457,1.549,5.98,4.639,6.806,8.335
			l17.383,77.807c29.273,19.613,64.451,31.068,102.257,31.068c9.085,0,18.017-0.673,26.753-1.949V305.19h-58
			c-6.627,0-12-5.373-12-12v-66c0-3.183,1.265-6.234,3.515-8.485l58-58c2.251-2.251,5.303-3.515,8.485-3.515h110
			c3.732,0,7.253,1.736,9.523,4.699c0.188,0.244,15.803,20.587,37.904,47.66c0.004-0.451,0.018-0.899,0.018-1.352
			c0-33.912-9.223-65.707-25.275-93.026L285.612,114.766z"/>
		<path style="fill:#3D6889;" d="M321.147,33.381c-0.26-0.168-0.515-0.343-0.775-0.51C287.977,12.072,249.47,0,208.196,0
			C93.396,0,0,93.397,0,208.197s93.396,208.197,208.196,208.197c114.801,0,208.198-93.397,208.198-208.197
			C416.395,135.002,378.422,70.516,321.147,33.381z M392.377,209.549c-22.102-27.073-37.717-47.416-37.904-47.66
			c-2.271-2.963-5.791-4.699-9.523-4.699h-110c-3.183,0-6.234,1.264-8.485,3.515l-58,58c-2.25,2.251-3.515,5.303-3.515,8.485v66
			c0,6.627,5.373,12,12,12h58v85.256c-8.736,1.276-17.668,1.949-26.753,1.949c-37.806,0-72.983-11.455-102.257-31.068L88.557,283.52
			c-0.825-3.696-3.349-6.786-6.806-8.335l-51.069-22.876l-1.642-26.684l47.546-6.547c4.812-0.662,8.749-4.159,9.975-8.858l24-92
			c0.494-1.893,0.518-3.877,0.069-5.781L98.371,60.412C129.058,37.549,167.074,24,208.196,24c12.834,0,25.364,1.323,37.466,3.834
			l-36.217,18.691c-3.505,1.81-5.897,5.226-6.398,9.139l-10,78c-0.438,3.42,0.615,6.863,2.894,9.453
			c2.278,2.588,5.561,4.072,9.009,4.072h58c4.678,0,8.929-2.719,10.893-6.964l11.77-25.46l81.507,0.405
			c16.053,27.319,25.275,59.114,25.275,93.026C392.395,208.649,392.381,209.098,392.377,209.549z M350.271,91.086l-72.253-0.357
			c-0.02,0-0.04,0-0.06,0c-4.676,0-8.929,2.717-10.892,6.963l-11.788,25.498h-36.691l7.465-58.226l52.383-27.036
			C306.543,49.566,331.173,67.959,350.271,91.086z M77.891,78.135l8.695,36.908l-21.223,81.354l-41.25,5.68
			C25.698,153.782,45.953,110.131,77.891,78.135z M39.741,282.664l26.706,11.963l9.245,41.383
			C60.791,320.566,48.561,302.535,39.741,282.664z M258.949,385.28V293.19c0-6.627-5.373-12-12-12h-58V232.16l50.971-50.971h99.142
			c7.629,9.813,26.502,33.857,49.397,61.332c0.189,0.226,0.391,0.433,0.592,0.642C375.886,311.393,324.957,366.334,258.949,385.28z"
			/>
	</g>
</g>
<g>
</g>
<g>
</g>
<g>
</g>
<g>
</g>
<g>
</g>
<g>
</g>
<g>
</g>
<g>
</g>
<g>
</g>
<g>
</g>
<g>
</g>
<g>
</g>
<g>
</g>
<g>
</g>
<g>
</g>
</svg>
