<svg height="64" viewBox="0 0 64 64" width="64" xmlns="http://www.w3.org/2000/svg"><g transform="matrix(.15370058 0 0 .15370058 0 -.00099)"><g fill="none"><path d="m226.051 64.964-7.465 58.226h36.691l11.788-25.498c1.964-4.246 6.217-6.963 10.892-6.963h.06l72.253.357c-19.098-23.127-43.727-41.52-71.837-53.158z"/><path d="m86.586 115.043-8.695-36.908c-31.938 31.996-52.192 75.647-53.777 123.941l41.25-5.68z"/><path d="m39.741 282.664c8.819 19.871 21.05 37.902 35.951 53.346l-9.245-41.383z"/><path d="m339.062 181.19h-99.142l-50.971 50.971v49.029h58c6.627 0 12 5.373 12 12v92.091c66.008-18.946 116.937-73.888 130.102-142.117-.201-.209-.403-.416-.592-.642-22.895-27.475-41.768-51.52-49.397-61.332z"/></g><path d="m320.371 32.871c.261.167.516.342.775.51 5.289 1.302 3.924.835-.775-.51z" fill="#73d0f4"/><path d="m285.612 114.766-11.77 25.46c-1.964 4.245-6.215 6.964-10.893 6.964h-58c-3.448 0-6.731-1.484-9.009-4.072-2.278-2.59-3.332-6.033-2.894-9.453l10-78c.501-3.913 2.894-7.329 6.398-9.139l36.217-18.691c-12.1-2.512-24.631-3.835-37.465-3.835-41.122 0-79.139 13.549-109.825 36.412l12.259 52.025c.448 1.904.425 3.889-.069 5.781l-24 92c-1.226 4.699-5.163 8.196-9.975 8.858l-47.546 6.547 1.642 26.684 51.069 22.876c3.457 1.549 5.98 4.639 6.806 8.335l17.383 77.807c29.273 19.613 64.451 31.068 102.257 31.068 9.085 0 18.017-.673 26.753-1.949v-85.254h-58c-6.627 0-12-5.373-12-12v-66c0-3.183 1.265-6.234 3.515-8.485l58-58c2.251-2.251 5.303-3.515 8.485-3.515h110c3.732 0 7.253 1.736 9.523 4.699.188.244 15.803 20.587 37.904 47.66.004-.451.018-.899.018-1.352 0-33.912-9.223-65.707-25.275-93.026z" fill="#73d0f4"/><path d="m321.147 33.381c-.26-.168-.515-.343-.775-.51-32.395-20.799-70.902-32.871-112.176-32.871-114.8 0-208.196 93.397-208.196 208.197s93.396 208.197 208.196 208.197c114.801 0 208.198-93.397 208.198-208.197.001-73.195-37.972-137.681-95.247-174.816zm71.23 176.168c-22.102-27.073-37.717-47.416-37.904-47.66-2.271-2.963-5.791-4.699-9.523-4.699h-110c-3.183 0-6.234 1.264-8.485 3.515l-58 58c-2.25 2.251-3.515 5.303-3.515 8.485v66c0 6.627 5.373 12 12 12h58v85.256c-8.736 1.276-17.668 1.949-26.753 1.949-37.806 0-72.983-11.455-102.257-31.068l-17.383-77.807c-.825-3.696-3.349-6.786-6.806-8.335l-51.069-22.876-1.642-26.684 47.546-6.547c4.812-.662 8.749-4.159 9.975-8.858l24-92c.494-1.893.518-3.877.069-5.781l-12.259-52.027c30.687-22.863 68.703-36.412 109.825-36.412 12.834 0 25.364 1.323 37.466 3.834l-36.217 18.691c-3.505 1.81-5.897 5.226-6.398 9.139l-10 78c-.438 3.42.615 6.863 2.894 9.453 2.278 2.588 5.561 4.072 9.009 4.072h58c4.678 0 8.929-2.719 10.893-6.964l11.77-25.46 81.507.405c16.053 27.319 25.275 59.114 25.275 93.026 0 .453-.014.902-.018 1.353zm-42.106-118.463-72.253-.357c-.02 0-.04 0-.06 0-4.676 0-8.929 2.717-10.892 6.963l-11.788 25.498h-36.691l7.465-58.226 52.383-27.036c28.108 11.638 52.738 30.031 71.836 53.158zm-272.38-12.951 8.695 36.908-21.223 81.354-41.25 5.68c1.585-48.295 21.84-91.946 53.778-123.942zm-38.15 204.529 26.706 11.963 9.245 41.383c-14.901-15.444-27.131-33.475-35.951-53.346zm219.208 102.616v-92.09c0-6.627-5.373-12-12-12h-58v-49.03l50.971-50.971h99.142c7.629 9.813 26.502 33.857 49.397 61.332.189.226.391.433.592.642-13.165 68.23-64.094 123.171-130.102 142.117z" fill="#3d6889"/></g></svg>