<svg fill="#f88" height="32" viewBox="0 0 32 32" width="32" xmlns="http://www.w3.org/2000/svg"><g transform="scale(.0625)"><path d="m221.719 304.235c-37.688 0-68.349 30.661-68.349 68.35s30.661 68.35 68.349 68.35 68.349-30.661 68.349-68.35-30.66-68.35-68.349-68.35zm0 103.307c-19.276 0-34.957-15.682-34.957-34.958 0-19.277 15.682-34.958 34.957-34.958 19.276 0 34.957 15.682 34.957 34.958.001 19.276-15.68 34.958-34.957 34.958z"/><path d="m345.844 98.176c-26.327 0-47.745 21.418-47.745 47.745s21.418 47.745 47.745 47.745 47.745-21.418 47.745-47.745-21.418-47.745-47.745-47.745zm.001 62.099c-7.915 0-14.354-6.439-14.354-14.354s6.439-14.354 14.354-14.354c7.914 0 14.354 6.439 14.354 14.354s-6.44 14.354-14.354 14.354z"/><path d="m107.272 189.846c-26.326 0-47.745 21.418-47.745 47.745s21.418 47.745 47.745 47.745 47.745-21.418 47.745-47.745c0-26.326-21.418-47.745-47.745-47.745zm0 62.099c-7.914 0-14.354-6.439-14.354-14.354s6.439-14.354 14.354-14.354 14.354 6.439 14.354 14.354-6.439 14.354-14.354 14.354z"/><path d="m511.992 254.601-.097-12.282-.267-.09c-3.328-63.204-29.517-122.157-74.608-167.247-48.353-48.354-112.639-74.982-181.02-74.982s-132.667 26.628-181.02 74.98c-48.352 48.353-74.98 112.64-74.98 181.02s26.628 132.667 74.98 181.02c48.353 48.352 112.639 74.98 181.02 74.98s132.667-26.628 181.02-74.98c48.352-48.353 74.98-112.64 74.98-181.02 0-.466-.004-.933-.008-1.399zm-274.588-220.426c.287 2.333.436 4.69.436 7.064 0 31.395-25.541 56.937-56.935 56.937-20.083 0-38.358-10.559-48.555-27.193 30.543-20.48 66.413-33.597 105.054-36.808zm18.596 444.434c-122.746 0-222.609-99.862-222.609-222.609 0-65.001 28.009-123.58 72.585-164.315 16.513 24.501 44.405 39.883 74.928 39.883 49.807 0 90.327-40.52 90.327-90.328 0-2.458-.105-4.903-.302-7.336 108.262 7.206 195.602 92.143 206.526 199.364-4.612-.554-9.269-.837-13.956-.837-63.91 0-115.905 51.995-115.905 115.905 0 33.779 14.791 65.53 39.702 87.312-36.833 26.993-82.232 42.961-131.296 42.961zm157.049-64.996c-20.018-15.506-32.062-39.566-32.062-65.278 0-45.498 37.015-82.513 82.513-82.513 5.009 0 9.963.461 14.829 1.342-2.834 57.082-27.268 108.572-65.28 146.449z"/></g></svg>