<?xml version="1.0" encoding="iso-8859-1"?>
<!-- Generator: Adobe Illustrator 19.0.0, SVG Export Plug-In . SVG Version: 6.00 Build 0)  -->
<svg version="1.1" id="Layer_1" xmlns="http://www.w3.org/2000/svg" xmlns:xlink="http://www.w3.org/1999/xlink" x="0px" y="0px"
	 viewBox="0 0 512 512" style="enable-background:new 0 0 512 512;" xml:space="preserve" fill="#ff8888" >
<g>
	<g>
		<path d="M221.719,304.235c-37.688,0-68.349,30.661-68.349,68.35c0,37.689,30.661,68.35,68.349,68.35
			c37.688,0,68.349-30.661,68.349-68.35C290.068,334.896,259.408,304.235,221.719,304.235z M221.719,407.542
			c-19.276,0-34.957-15.682-34.957-34.958c0-19.277,15.682-34.958,34.957-34.958c19.276,0,34.957,15.682,34.957,34.958
			C256.677,391.86,240.996,407.542,221.719,407.542z"/>
	</g>
</g>
<g>
	<g>
		<path d="M345.844,98.176c-26.327,0-47.745,21.418-47.745,47.745c0,26.327,21.418,47.745,47.745,47.745
			c26.327,0,47.745-21.418,47.745-47.745C393.589,119.594,372.171,98.176,345.844,98.176z M345.845,160.275
			c-7.915,0-14.354-6.439-14.354-14.354c0-7.915,6.439-14.354,14.354-14.354c7.914,0,14.354,6.439,14.354,14.354
			C360.199,153.836,353.759,160.275,345.845,160.275z"/>
	</g>
</g>
<g>
	<g>
		<path d="M107.272,189.846c-26.326,0-47.745,21.418-47.745,47.745c0,26.327,21.418,47.745,47.745,47.745
			c26.327,0,47.745-21.418,47.745-47.745C155.017,211.265,133.599,189.846,107.272,189.846z M107.272,251.945
			c-7.914,0-14.354-6.439-14.354-14.354s6.439-14.354,14.354-14.354s14.354,6.439,14.354,14.354S115.187,251.945,107.272,251.945z"
			/>
	</g>
</g>
<g>
	<g>
		<path d="M511.992,254.601l-0.097-12.282l-0.267-0.09c-3.328-63.204-29.517-122.157-74.608-167.247C388.667,26.628,324.381,0,256,0
			S123.333,26.628,74.98,74.98C26.628,123.333,0,187.62,0,256s26.628,132.667,74.98,181.02C123.333,485.372,187.619,512,256,512
			s132.667-26.628,181.02-74.98C485.372,388.667,512,324.38,512,256C512,255.534,511.996,255.067,511.992,254.601z M237.404,34.175
			c0.287,2.333,0.436,4.69,0.436,7.064c0,31.395-25.541,56.937-56.935,56.937c-20.083,0-38.358-10.559-48.555-27.193
			C162.893,50.503,198.763,37.386,237.404,34.175z M256,478.609c-122.746,0-222.609-99.862-222.609-222.609
			c0-65.001,28.009-123.58,72.585-164.315c16.513,24.501,44.405,39.883,74.928,39.883c49.807,0,90.327-40.52,90.327-90.328
			c0-2.458-0.105-4.903-0.302-7.336c108.262,7.206,195.602,92.143,206.526,199.364c-4.612-0.554-9.269-0.837-13.956-0.837
			c-63.91,0-115.905,51.995-115.905,115.905c0,33.779,14.791,65.53,39.702,87.312C350.463,462.641,305.064,478.609,256,478.609z
			 M413.049,413.613c-20.018-15.506-32.062-39.566-32.062-65.278c0-45.498,37.015-82.513,82.513-82.513
			c5.009,0,9.963,0.461,14.829,1.342C475.495,324.246,451.061,375.736,413.049,413.613z"/>
	</g>
</g>
<g>
</g>
<g>
</g>
<g>
</g>
<g>
</g>
<g>
</g>
<g>
</g>
<g>
</g>
<g>
</g>
<g>
</g>
<g>
</g>
<g>
</g>
<g>
</g>
<g>
</g>
<g>
</g>
<g>
</g>
</svg>
