<svg fill-rule="evenodd" height="32" preserveAspectRatio="xMidYMid" stroke-linejoin="round" stroke-width="28.222" viewBox="0 0 846.66659 846.66659" width="32" xmlns="http://www.w3.org/2000/svg" xmlns:xlink="http://www.w3.org/1999/xlink"><clipPath id="a"><path d="m0 0h600v600h-600z"/></clipPath><clipPath id="b"><path d="m25 25h550v550h-550z"/></clipPath><g clip-path="url(#a)" transform="matrix(1.5366 0 0 1.5366 -38.415 -38.41501)"><path d="m25 25h551v551h-551z" fill="none"/><g clip-path="url(#b)"><path d="m163 300c0 75 62 137 137 137 20 0 40-5 57-13-1-4-2-9-2-14 0-30 24-54 54-54 5 0 10 1 14 3 9-18 14-38 14-59 0-75-62-137-137-137s-137 62-137 137zm308 0c0 28-7 55-19 78 6 9 10 20 10 32 0 30-24 54-53 54-13 0-24-5-33-11-23 11-49 18-76 18-94 0-171-77-171-171s77-171 171-171 171 77 171 171z" fill="#90a0be"/><path d="m300 258c23 0 42 19 42 42s-19 42-42 42-42-19-42-42 19-42 42-42z" fill="#fede94"/><path d="m300 342c23 0 42-19 42-42s-19-42-42-42-42 19-42 42 19 42 42 42zm0-118c42 0 76 34 76 76s-34 76-76 76-76-34-76-76 34-76 76-76z" fill="#90a0be"/><path d="m118 163c-27 0-49-22-49-49s22-49 49-49 49 22 49 49-22 49-49 49z" fill="#fede94"/><path d="m118 163c27 0 49-22 49-49s-22-49-49-49-49 22-49 49 22 49 49 49zm182-138c152 0 275 123 275 275s-123 275-275 275-275-123-275-275c0-47 12-91 32-129-13-15-22-35-22-57 0-46 37-83 83-83 23 0 43 9 58 24 38-19 80-30 124-30zm241 275c0-133-108-241-241-241-37 0-73 8-105 24 4 9 6 20 6 31 0 46-37 83-83 83-12 0-23-2-33-7-17 33-26 71-26 110 0 133 108 241 241 241s241-108 241-241z" fill="#90a0be"/></g></g></svg>