<svg height="32" preserveAspectRatio="xMidYMid meet" viewBox="0 0 24.000001 24.000001" width="32" xmlns="http://www.w3.org/2000/svg"><g fill="#f88" transform="matrix(.00187534 0 0 -.00187523 -.0022 24.0022)"><path d="m4671 12787c-13-6-34-25-45-40l-21-28-8-1457c-9-1611-13-1503 54-1538 19-9 45-14 63-11 17 3 181 88 364 190l332 184 382 7c275 5 391 11 413 20 39 17 65 56 65 99 0 26-158 304-726 1278-446 764-739 1257-760 1277-36 34-72 41-113 19z"/><path d="m9603 12133c-32-19-2044-2008-2075-2053-27-39-23-94 10-130 24-28 62-40 397-136l370-106 280-269c283-272 313-295 367-282 30 8 64 39 77 71 10 27 38 129 361 1362 89 338 206 785 261 994 120 455 122 462 103 497-33 64-92 84-151 52z"/><path d="m713 9750c-62-38-78-88-45-147 18-32 2007-2044 2052-2075 39-27 94-23 130 10 27 24 41 63 137 398l106 372 269 278c271 282 294 312 281 366-8 30-39 64-71 77-15 6-189 53-387 105-1934 508-2375 623-2411 629-20 4-41 0-61-13z"/><path d="m6074 9589c-1027-99-1976-729-2483-1645-183-330-311-723-366-1124-22-160-31-532-16-699 63-715 360-1378 853-1907 534-574 1220-915 2008-999 157-17 488-19 643-5 1039 99 1986 723 2496 1646 183 330 311 723 366 1124 22 160 31 532 16 699-64 721-364 1386-865 1921-528 562-1215 901-1996 985-144 16-515 18-656 4z"/><path d="m9764 8192c-37-23-59-71-51-111 3-15 89-177 190-359l184-332 7-382c5-275 11-391 20-413 17-39 56-65 99-65 26 0 304 158 1278 726 796 464 1256 738 1278 761 29 31 33 40 28 75-6 47-37 84-81 97-18 5-618 12-1476 15-1412 7-1446 6-1476-12z"/><path d="m1309 5544c-796-464-1256-738-1278-761-29-31-33-40-28-75 6-47 37-84 81-97 18-5 618-12 1473-16 1303-6 1444-5 1472 10 39 20 65 68 58 109-3 17-88 181-190 364l-184 332-7 382c-5 275-11 391-20 413-17 39-56 65-99 65-26 0-304-158-1278-726z"/><path d="m9950 5263c-27-25-40-63-136-399l-106-370-269-280c-272-282-295-312-282-366 8-30 39-64 71-77 27-10 129-38 1362-361 338-89 785-206 994-261 455-120 462-122 497-103 64 33 84 92 52 151-19 32-2008 2044-2053 2075-39 27-94 23-130-9z"/><path d="m3845 3643c-27-7-61-39-74-71-10-27-38-129-361-1362-89-338-206-785-261-994-120-455-122-462-103-497 33-64 92-84 151-51 32 18 2044 2007 2075 2052 27 39 23 94-9 130-25 27-63 40-399 136l-371 106-269 260c-148 143-278 266-289 273-25 16-64 24-90 18z"/><path d="m8040 3072c-19-10-174-95-345-189l-310-171-380-7c-273-5-388-10-410-19-39-17-65-56-65-99 0-26 158-304 726-1278 465-797 738-1256 761-1278 31-29 40-33 75-28 47 6 84 37 97 81 5 18 12 618 16 1473 7 1591 11 1484-55 1518-38 20-68 19-110-3z"/></g></svg>